<?xml version="1.0" encoding="utf-8"?>
<!-- Generator: Adobe Illustrator 16.0.0, SVG Export Plug-In . SVG Version: 6.00 Build 0)  -->
<!DOCTYPE svg PUBLIC "-//W3C//DTD SVG 1.1//EN" "http://www.w3.org/Graphics/SVG/1.1/DTD/svg11.dtd">
<svg version="1.1" xmlns="http://www.w3.org/2000/svg" xmlns:xlink="http://www.w3.org/1999/xlink" x="0px" y="0px" width="800px"
	 height="400px" viewBox="0 0 800 400" enable-background="new 0 0 800 400" xml:space="preserve">
<g id="Layer_1" display="none">
	<g display="inline">
		<polygon fill="#FFFFFF" points="400.848,136.187 400.848,153.562 440.748,153.562 449.436,136.187 		"/>
		<path fill="#FFFFFF" d="M484.13,89.361v-0.043l-41.79,0.052c-2.553,6.458-6.36,12.281-11.122,17.174l44.349-0.056L484.13,89.361z"
			/>
		<path fill="#FFFFFF" d="M312.265,106.693l44.423-0.056c-4.773-4.881-8.595-10.696-11.163-17.146l-41.834,0.053L312.265,106.693z"
			/>
		<path fill="#FFFFFF" d="M418.225,113.628v-5.374c12.51-8.02,20.8-22.045,20.8-38.008c0-24.917-20.199-45.117-45.117-45.117
			s-45.117,20.2-45.117,45.117c0,15.962,8.29,29.988,20.799,38.008v5.374h-48.563l7.809,15.617h40.754h17.376V97.122
			c-11.973-3.083-20.823-13.94-20.823-26.875c0-15.334,12.43-27.764,27.764-27.764s27.764,12.43,27.764,27.764
			c0,12.935-8.851,23.792-20.824,26.875v32.123h17.376h40.883l7.681-15.361v-0.256H418.225z"/>
		<polygon fill="#FFFFFF" points="386.967,136.187 338.38,136.187 347.068,153.562 386.967,153.562 		"/>
	</g>
	<text transform="matrix(1 0 0 1 18.7056 222.6621)" display="inline"><tspan x="0" y="0" fill="#FFFFFF" font-family="'ZillaSlab-Medium'" font-size="60.085">ELECTRICAL ENGINEERING</tspan><tspan x="330.207" y="46.48" fill="#FFFFFF" font-family="'ZillaSlab-Light'" font-size="40.7889">CLUB</tspan></text>
</g>
<g id="Layer_2">
	<g>
		<g>
			<path fill-rule="evenodd" clip-rule="evenodd" fill="#FFFFFF" d="M21.328,117.107c20.05,0,39.911,0,59.839,0
				c0-2.235,0-4.387,0-6.546c-29.387-18.994-34.041-59.33-11.01-84.505c21.807-23.844,59.185-24.346,81.486-0.775
				c11.952,12.622,16.948,27.836,14.903,45.05c-2.053,17.26-10.85,30.558-25.183,40.275c0,2.121,0,4.243,0,6.5
				c10.014,0,19.975,0,29.935,0c9.93,0,19.86,0,29.942,0c-0.114,0.403-0.145,0.692-0.274,0.943
				c-2.95,5.916-5.916,11.831-8.858,17.754c-0.235,0.479-0.517,0.715-1.057,0.654c-0.297-0.03-0.601,0-0.913,0
				c-15.61,0-31.205-0.008-46.814,0c-7.314,0-14.621,0.008-21.928,0.016c-0.456,0-0.905,0-1.338,0
				c-0.266-0.867-0.372-37.295-0.137-39.675c9.755-2.798,17.176-8.576,21.86-17.655c3.756-7.269,4.676-14.986,2.92-22.955
				c-3.384-15.375-17.199-27.244-34.353-26.795c-16.59,0.441-29.912,12.455-32.74,28.072c-3.384,18.75,8.828,35.386,25.053,39.363
				c0,13.146,0,26.308,0,39.606c-0.456,0.015-0.897,0.038-1.338,0.038c-9.018-0.008-18.043-0.016-27.061-0.016
				c-14.013-0.008-28.019,0-42.024-0.008c-1.482,0-1.171,0.198-1.855-1.178c-2.821-5.596-5.626-11.215-8.424-16.827
				C21.776,118.073,21.602,117.692,21.328,117.107z"/>
			<path fill-rule="evenodd" clip-rule="evenodd" fill="#FFFFFF" d="M119.883,166.385c0-7.162,0-14.195,0-21.213
				c0.912-0.258,56.281-0.387,59.748-0.137c-0.038,0.206-0.031,0.441-0.114,0.608c-3.414,6.835-6.828,13.663-10.249,20.499
				c-0.031,0.068-0.091,0.122-0.19,0.243C152.753,166.385,136.368,166.385,119.883,166.385z"/>
			<path fill-rule="evenodd" clip-rule="evenodd" fill="#FFFFFF" d="M102.646,166.4c-16.438,0-32.786,0-49.217,0
				c-3.528-7.079-7.079-14.158-10.675-21.366c20.073,0,39.941,0,59.893,0C102.646,152.151,102.646,159.208,102.646,166.4z"/>
			<path fill-rule="evenodd" clip-rule="evenodd" fill="#FFFFFF" d="M162.652,108.569c0-1.361-0.022-2.616,0.016-3.863
				c0.008-0.273,0.152-0.585,0.327-0.813c3.612-4.942,6.486-10.28,8.607-16.021c0.054-0.137,0.145-0.266,0.221-0.41
				c16.895,0,33.775,0,50.837,0c-3.543,7.109-7.033,14.097-10.546,21.107C195.652,108.569,179.229,108.569,162.652,108.569z"/>
			<path fill-rule="evenodd" clip-rule="evenodd" fill="#FFFFFF" d="M59.945,108.576c-16.56,0-32.953,0-49.475,0
				C6.995,101.626,3.505,94.632,0,87.621c0.92-0.259,48.251-0.365,50.775-0.137c0.137,0.312,0.304,0.654,0.434,1.003
				c2.045,5.398,4.768,10.439,8.182,15.101c0.38,0.518,0.585,1.019,0.563,1.673C59.907,106.318,59.945,107.382,59.945,108.576z"/>
		</g>
		<g>
			<text transform="matrix(1 0 0 1 250.9702 114.1279)"><tspan x="0" y="0" fill="#FFFFFF" font-family="'ZillaSlab-SemiBold'" font-size="93.9712">ELECTRICAL</tspan><tspan x="2.627" y="50.4" fill="#FFFFFF" font-family="'ZillaSlab-Bold'" font-size="57.4425">ENGINEERING CLUB</tspan></text>
			
				<text transform="matrix(1 0 0 1 259.5747 32.1113)" fill="#FFFFFF" font-family="'ZillaSlab-SemiBold'" font-size="34.155" letter-spacing="6">UNIVERSITY OF ALBERTA</text>
		</g>
	</g>
</g>
</svg>
